<svg width="165" height="140" viewBox="0 0 165 140" fill="none" xmlns="http://www.w3.org/2000/svg">
<path d="M0 113.321V4C0 1.79086 1.79086 0 4 0H110.124C113.192 0 115.117 3.31063 113.601 5.97721L103.65 23.4772C102.939 24.7276 101.612 25.5 100.173 25.5H31C28.7909 25.5 27 27.2909 27 29.5V41.5C27 43.7091 28.7909 45.5 31 45.5H83.5744C86.653 45.5 88.5776 48.8322 87.0391 51.4989L76.6545 69.4989C75.9401 70.7371 74.6193 71.5 73.1897 71.5H31C28.7909 71.5 27 73.2909 27 75.5V98.5437C27 99.778 26.4301 100.943 25.4558 101.701L6.45576 116.479C3.82833 118.522 0 116.65 0 113.321Z" fill="url(#paint0_linear_16_25)"/>
<path d="M160.566 0H141.775C140.365 0 139.058 0.743126 138.337 1.9557L87.7447 87.043C86.2404 89.573 82.611 89.6666 80.9783 87.2175L76.6875 80.7812C75.9456 79.6684 74.6967 79 73.3593 79H53.4992C50.4043 79 48.4818 82.3639 50.0528 85.0304L81.0218 137.596C82.5762 140.235 86.3975 140.219 87.9307 137.569L164.028 6.00272C165.57 3.33605 163.646 0 160.566 0Z" fill="url(#paint1_linear_16_25)"/>
<defs>
<linearGradient id="paint0_linear_16_25" x1="48.6672" y1="0.499995" x2="170.012" y2="81.4666" gradientUnits="userSpaceOnUse">
<stop stop-color="#38BDF8"/>
<stop offset="1" stop-color="#2563EB"/>
</linearGradient>
<linearGradient id="paint1_linear_16_25" x1="48.6672" y1="0.499995" x2="170.012" y2="81.4666" gradientUnits="userSpaceOnUse">
<stop stop-color="#38BDF8"/>
<stop offset="1" stop-color="#2563EB"/>
</linearGradient>
</defs>
</svg>
